<?xml version="1.0" encoding="utf-8"?>
<!-- Generator: Adobe Illustrator 25.4.1, SVG Export Plug-In . SVG Version: 6.00 Build 0)  -->
<svg version="1.1" id="Layer_1" xmlns="http://www.w3.org/2000/svg" xmlns:xlink="http://www.w3.org/1999/xlink" x="0px" y="0px"
	 viewBox="0 0 103.1 53.3" style="enable-background:new 0 0 103.1 53.3;" xml:space="preserve">
<style type="text/css">
	.st0{clip-path:url(#SVGID_00000134228685106753738290000007774929898050740119_);}
	.st1{clip-path:url(#SVGID_00000182518750858581630800000000187248059607495823_);fill:#ffffff;}
</style>
<g>
	<g>
		<defs>
			<rect id="SVGID_1_" width="103.1" height="53.3"/>
		</defs>
		<clipPath id="SVGID_00000080192482341772692780000013782166067144069248_">
			<use xlink:href="#SVGID_1_"  style="overflow:visible;"/>
		</clipPath>
		<g style="clip-path:url(#SVGID_00000080192482341772692780000013782166067144069248_);">
			<defs>
				<rect id="SVGID_00000147941543737517481410000009411553764573840317_" width="103.1" height="53.3"/>
			</defs>
			<clipPath id="SVGID_00000133522991161141832520000006927626504811720116_">
				<use xlink:href="#SVGID_00000147941543737517481410000009411553764573840317_"  style="overflow:visible;"/>
			</clipPath>
			<path style="clip-path:url(#SVGID_00000133522991161141832520000006927626504811720116_);fill:#ffffff;" d="M3.3,31.6
				c1.4,0,2.2,0.7,2.2,1.8v0.3c0,0.9-0.5,1.3-1.2,1.5v0c0.8,0.2,1.3,0.7,1.3,1.6v0.4c0,1.2-0.8,1.8-2.2,1.8H0v-7.5H3.3z M1.6,34.8H3
				C3.6,34.8,4,34.5,4,34v-0.4c0-0.5-0.3-0.7-0.9-0.7H1.6V34.8z M1.6,37.9h1.5c0.6,0,0.9-0.3,0.9-0.8v-0.4c0-0.5-0.3-0.8-0.9-0.8
				H1.6V37.9z"/>
			<path style="clip-path:url(#SVGID_00000133522991161141832520000006927626504811720116_);fill:#ffffff;" d="M10.1,39.1H8.5v-7.5
				h3.3c1.6,0,2.4,0.8,2.4,2.1v0.6c0,0.9-0.5,1.6-1.4,1.9l1.6,2.9h-1.7l-1.5-2.7h-1.1V39.1z M10.1,35.1h1.3c0.8,0,1.1-0.3,1.1-0.9
				v-0.4c0-0.6-0.3-0.9-1.1-0.9h-1.3V35.1z"/>
			
				<rect x="17.2" y="31.6" style="clip-path:url(#SVGID_00000133522991161141832520000006927626504811720116_);fill:#ffffff;" width="1.6" height="7.5"/>
			<path style="clip-path:url(#SVGID_00000133522991161141832520000006927626504811720116_);fill:#ffffff;" d="M27.7,33.9v0.3h-1.6
				v-0.2c0-0.8-0.4-1.2-1.3-1.2c-1,0-1.5,0.7-1.5,1.7v1.7c0,1.1,0.6,1.7,1.5,1.7c0.8,0,1.4-0.5,1.4-1.4v-0.3h-1.4v-1.1h2.9v4H27
				L26.8,38c-0.4,0.7-1,1.3-2.2,1.3c-1.7,0-2.8-1.2-2.8-3v-1.7c0-1.8,1.2-3.1,3.1-3.1C26.7,31.5,27.7,32.4,27.7,33.9"/>
			<polygon style="clip-path:url(#SVGID_00000133522991161141832520000006927626504811720116_);fill:#ffffff;" points="32.5,31.6 
				32.5,34.6 35.2,34.6 35.2,31.6 36.8,31.6 36.8,39.1 35.2,39.1 35.2,36 32.5,36 32.5,39.1 30.9,39.1 30.9,31.6 			"/>
			<path style="clip-path:url(#SVGID_00000133522991161141832520000006927626504811720116_);fill:#ffffff;" d="M44.1,37.7h-2.7
				L41,39.1h-1.6l2.5-7.5h1.8l2.5,7.5h-1.7L44.1,37.7z M41.8,36.5h1.9l-0.9-3.1h0L41.8,36.5z"/>
			<polygon style="clip-path:url(#SVGID_00000133522991161141832520000006927626504811720116_);fill:#ffffff;" points="51.2,31.6 
				52.9,36.8 52.9,36.8 54.6,31.6 56.9,31.6 56.9,39.1 55.4,39.1 55.4,33.5 55.3,33.5 53.5,39.1 52.2,39.1 50.3,33.5 50.3,33.5 
				50.3,39.1 48.9,39.1 48.9,31.6 			"/>
			<polygon style="clip-path:url(#SVGID_00000133522991161141832520000006927626504811720116_);fill:#ffffff;" points="65.1,31.6 
				66.6,34.8 68.2,31.6 69.9,31.6 67.4,36.3 67.4,39.1 65.8,39.1 65.8,36.3 63.3,31.6 			"/>
			<path style="clip-path:url(#SVGID_00000133522991161141832520000006927626504811720116_);fill:#ffffff;" d="M77.7,34.6v1.5
				c0,2.1-1.2,3.2-3.2,3.2c-1.9,0-3.2-1.1-3.2-3.2v-1.5c0-2.1,1.2-3.2,3.2-3.2C76.4,31.5,77.7,32.6,77.7,34.6 M73,34.6v1.6
				c0,1.2,0.6,1.8,1.5,1.8c1,0,1.5-0.5,1.5-1.8v-1.6c0-1.2-0.6-1.8-1.5-1.8C73.5,32.8,73,33.4,73,34.6"/>
			<path style="clip-path:url(#SVGID_00000133522991161141832520000006927626504811720116_);fill:#ffffff;" d="M81.6,31.6v4.8
				c0,0.9,0.5,1.4,1.3,1.4c0.9,0,1.3-0.5,1.3-1.4v-4.8h1.5v4.8c0,1.8-1,2.9-2.9,2.9c-2,0-2.9-1-2.9-2.9v-4.8H81.6z"/>
			<polygon style="clip-path:url(#SVGID_00000133522991161141832520000006927626504811720116_);fill:#ffffff;" points="90.2,31.6 
				93.1,36.4 93.1,36.4 93.1,31.6 94.6,31.6 94.6,39.1 93,39.1 90.1,34.3 90,34.3 90.1,39.1 88.6,39.1 88.6,31.6 			"/>
			<path style="clip-path:url(#SVGID_00000133522991161141832520000006927626504811720116_);fill:#ffffff;" d="M103.1,33.9v0.3h-1.6
				v-0.2c0-0.8-0.4-1.2-1.3-1.2c-1,0-1.5,0.7-1.5,1.7v1.7c0,1.1,0.6,1.7,1.5,1.7c0.8,0,1.4-0.5,1.4-1.4v-0.3h-1.4v-1.1h2.9v4h-0.7
				l-0.2-1.1c-0.4,0.7-1,1.3-2.2,1.3c-1.7,0-2.8-1.2-2.8-3v-1.7c0-1.8,1.2-3.1,3.1-3.1C102.1,31.5,103.1,32.4,103.1,33.9"/>
			<path style="clip-path:url(#SVGID_00000133522991161141832520000006927626504811720116_);fill:#ffffff;" d="M21.4,47.1V51
				c0,0.7,0.4,1.2,1.1,1.2c0.7,0,1.1-0.4,1.1-1.2v-3.9h1.2v3.8c0,1.5-0.8,2.3-2.3,2.3c-1.6,0-2.3-0.8-2.3-2.3v-3.8H21.4z"/>
			<polygon style="clip-path:url(#SVGID_00000133522991161141832520000006927626504811720116_);fill:#ffffff;" points="28.9,47.1 
				31.2,51 31.2,51 31.2,47.1 32.4,47.1 32.4,53.1 31.1,53.1 28.8,49.3 28.8,49.3 28.8,53.1 27.6,53.1 27.6,47.1 			"/>
			
				<rect x="35.3" y="47.1" style="clip-path:url(#SVGID_00000133522991161141832520000006927626504811720116_);fill:#ffffff;" width="1.3" height="6"/>
			<polygon style="clip-path:url(#SVGID_00000133522991161141832520000006927626504811720116_);fill:#ffffff;" points="40.5,47.1 
				41.8,51.4 41.8,51.4 43.1,47.1 44.4,47.1 42.4,53.2 41.1,53.2 39.1,47.1 			"/>
			<polygon style="clip-path:url(#SVGID_00000133522991161141832520000006927626504811720116_);fill:#ffffff;" points="50.9,47.1 
				50.9,48.3 48.1,48.3 48.1,49.6 50.3,49.6 50.3,50.6 48.1,50.6 48.1,52 50.9,52 50.9,53.1 46.8,53.1 46.8,47.1 			"/>
			<path style="clip-path:url(#SVGID_00000133522991161141832520000006927626504811720116_);fill:#ffffff;" d="M54.8,53.1h-1.3v-6
				h2.6c1.3,0,1.9,0.6,1.9,1.7v0.5c0,0.7-0.4,1.3-1.1,1.5l1.3,2.3h-1.4L55.7,51h-0.9V53.1z M54.8,50h1c0.6,0,0.9-0.3,0.9-0.7v-0.3
				c0-0.5-0.3-0.7-0.9-0.7h-1.1V50z"/>
			<path style="clip-path:url(#SVGID_00000133522991161141832520000006927626504811720116_);fill:#ffffff;" d="M65.2,48.8V49h-1.3
				v-0.2c0-0.4-0.3-0.8-1-0.8c-0.6,0-0.9,0.3-0.9,0.6c0,0.5,0.3,0.6,1.3,0.9c1.5,0.4,2,0.9,2,1.8c0,1.1-0.9,1.8-2.3,1.8
				c-1.6,0-2.3-0.7-2.3-1.8v-0.3h1.3v0.2c0,0.6,0.4,0.9,1.1,0.9c0.6,0,1-0.2,1-0.7c0-0.5-0.2-0.6-1.4-1c-1.4-0.4-1.9-0.8-1.9-1.8
				c0-1,0.8-1.7,2.2-1.7C64.4,47,65.2,47.8,65.2,48.8"/>
			
				<rect x="67.9" y="47.1" style="clip-path:url(#SVGID_00000133522991161141832520000006927626504811720116_);fill:#ffffff;" width="1.3" height="6"/>
			<polygon style="clip-path:url(#SVGID_00000133522991161141832520000006927626504811720116_);fill:#ffffff;" points="76.4,47.1 
				76.4,48.3 74.7,48.3 74.7,53.1 73.4,53.1 73.4,48.3 71.7,48.3 71.7,47.1 			"/>
			<polygon style="clip-path:url(#SVGID_00000133522991161141832520000006927626504811720116_);fill:#ffffff;" points="79.6,47.1 
				80.9,49.7 82.1,47.1 83.5,47.1 81.5,50.9 81.5,53.1 80.2,53.1 80.2,50.9 78.2,47.1 			"/>
			<path style="clip-path:url(#SVGID_00000133522991161141832520000006927626504811720116_);fill:#ffffff;" d="M25.8,7.1V3.9
				c0-0.2,0-0.4,0-0.4s0.2,0,0.4,0h2.4c1.9,0,2.9,0.3,2.9,2c0,1.1-0.7,2.1-2.9,2.1h-2.5c-0.2,0-0.4,0-0.4,0S25.8,7.3,25.8,7.1
				 M25.8,14.5v-3.7c0-0.3,0-0.4,0-0.4s0.2,0,0.4,0h2.1c1.6,0,3.6,0,3.6,2.3c0,1.7-1.4,2.3-3.4,2.3h-2.3c-0.2,0-0.4,0-0.4,0
				S25.8,14.7,25.8,14.5 M19.9,1.5l0,15.5c0,0.5,0,0.7-0.3,0.9c-0.3,0.2-0.7,0.3-1.3,0.4c0,0,0,0,0,0c-0.1,0,0,0.2,0,0.2h12.6
				c5.3,0,7.5-2.1,7.5-5.4c0-2.4-1.1-3.9-3.4-4.5c0,0,0-0.1,0-0.1c1.4-0.4,2.7-1.5,2.7-4c0-3.4-2.3-4.6-7.4-4.6L18.3,0
				c-0.1,0-0.1,0.2,0,0.2c0,0,0,0,0,0c0.6,0.1,0.9,0.1,1.3,0.4C19.9,0.8,19.9,1,19.9,1.5"/>
			<path style="clip-path:url(#SVGID_00000133522991161141832520000006927626504811720116_);fill:#ffffff;" d="M83.2,1.5
				c0-0.5,0-0.7,0.3-0.9c0.3-0.2,0.7-0.3,1.3-0.4c0,0,0,0,0,0c0.1,0,0-0.2,0-0.2l-9.3,0c-0.1,0-0.1,0.2,0,0.2c0,0,0,0,0,0
				c0.6,0.1,0.9,0.1,1.2,0.3c0.4,0.2,0.3,0.4,0.3,0.9v9.3c0,2.1-1.2,3.8-3.6,3.8c-2.4,0-3.6-1.6-3.6-3.8l0-9.3c0-0.5,0-0.7,0.3-0.9
				c0.3-0.2,0.6-0.3,1.2-0.4c0,0,0,0,0,0c0.1,0,0-0.2,0-0.2l-8.7,0c-0.1,0-0.1,0.2,0,0.2c0,0,0,0,0,0c0.3,0,0.5,0,0.7,0.2
				c0.3,0.2,0.3,0.5,0.3,1v9.2c0,4.4,2.4,8.2,9.8,8.2s9.8-3.8,9.8-8.2V1.5z"/>
			<path style="clip-path:url(#SVGID_00000133522991161141832520000006927626504811720116_);fill:#ffffff;" d="M55.1,18.5
				c0.1,0,0.1-0.2,0-0.2c0,0,0,0,0,0c-0.6-0.1-0.9-0.1-1.3-0.4c-0.4-0.2-0.3-0.4-0.3-0.9v-5.9l6.4-9.5c0.4-0.5,0.6-0.8,0.9-1
				c0,0,0.2-0.1,0.2-0.2c0.3-0.1,0.4-0.2,0.7-0.2c0,0,0,0,0,0c0.1,0,0.1-0.2,0-0.2l-8.6,0c-0.1,0-0.1,0.2,0,0.2c0,0,0,0,0,0
				c0.4,0,0.9,0,0.9,0.6c0,0.6-2.5,4.2-3.4,5.6c-0.1,0.2-0.2,0.4-0.3,0.6c0-0.2-0.2-0.5-0.3-0.6c-1.2-1.8-3.4-4.8-3.4-5.6
				c-0.1-0.6,0.4-0.6,0.9-0.6c0,0,0,0,0,0c0.1,0,0.1-0.2,0-0.2l-9.1,0c-0.1,0,0,0.2,0,0.2c0,0,0,0,0,0c0.4,0,0.6,0,1.1,0.2
				c0.1,0,0.2,0.1,0.2,0.2c0.3,0.2,0.5,0.5,0.8,1l6.4,9.5l0,5.9c0,0.5,0,0.7-0.3,0.9c-0.3,0.2-0.7,0.3-1.3,0.4c0,0,0,0,0,0
				c-0.1,0,0,0.2,0,0.2H55.1z"/>
		</g>
	</g>
</g>
</svg>
