<?xml version="1.0" encoding="utf-8"?>
<!-- Generator: Adobe Illustrator 28.3.0, SVG Export Plug-In . SVG Version: 6.00 Build 0)  -->
<svg version="1.1" id="Layer_1" xmlns="http://www.w3.org/2000/svg" xmlns:xlink="http://www.w3.org/1999/xlink" x="0px" y="0px"
	 viewBox="0 0 72 50" style="enable-background:new 0 0 72 36;" >
<style type="text/css">
	.st0{fill:#002E5D;}
</style>
<g>
	<g>
		<path class="st0" d="M12.8,35.4c0-0.2,0-2.1,0-2.9c0-0.2,0-0.4,0-0.4s0.2,0,0.4,0c0.2,0,2.2,0,2.2,0c1.7,0,2.7,0.3,2.7,1.8
			c0,1-0.6,1.9-2.6,1.9c0,0-2.1,0-2.3,0c-0.2,0-0.4,0-0.4,0S12.8,35.6,12.8,35.4z M12.8,42.1c0,0,0-2.4,0-3.4c0-0.2,0-0.4,0-0.4
			s0.2,0,0.4,0c0.2,0,1.9,0,1.9,0c1.5,0,3.3,0,3.3,2.1c0,1.5-1.3,2-3,2c0,0-2.1,0-2.1,0c-0.2,0-0.4,0-0.4,0S12.8,42.3,12.8,42.1z
			 M7.5,30.3l0,14c0,0.5,0,0.6-0.3,0.8c-0.3,0.2-0.6,0.2-1.2,0.3c0,0,0,0,0,0c-0.1,0,0,0.2,0,0.2c0,0,11.3,0,11.3,0
			c4.8,0,6.8-1.9,6.8-4.9c0-2.2-1-3.5-3-4c0,0,0-0.1,0-0.1c1.3-0.4,2.5-1.3,2.5-3.6c0-3.1-2.1-4.1-6.6-4.1L6,29C6,29,6,29.2,6,29.2
			c0,0,0,0,0,0c0.5,0.1,0.8,0.1,1.2,0.3C7.5,29.7,7.5,29.9,7.5,30.3z"/>
		<path class="st0" d="M64.6,30.3c0-0.5,0-0.6,0.3-0.8c0.3-0.2,0.6-0.2,1.2-0.3c0,0,0,0,0,0c0.1,0,0-0.2,0-0.2l-8.4,0
			c-0.1,0-0.1,0.2,0,0.2c0,0,0,0,0,0c0.5,0.1,0.8,0.1,1.1,0.3c0.3,0.2,0.3,0.4,0.3,0.8v8.4c0,1.9-1.1,3.4-3.3,3.4
			c-2.2,0-3.3-1.5-3.3-3.4l0-8.4c0-0.5,0-0.6,0.3-0.8c0.3-0.2,0.6-0.2,1.1-0.3c0,0,0,0,0,0c0.1,0,0-0.2,0-0.2L46,29
			c-0.1,0,0,0.2,0,0.2c0,0,0,0,0,0c0.3,0,0.5,0,0.7,0.2c0.3,0.2,0.3,0.5,0.3,0.9v8.3c0,4,2.2,7.4,8.8,7.4c6.6,0,8.8-3.4,8.8-7.4
			V30.3z"/>
		<path class="st0" d="M39.3,45.7c0.1,0,0.1-0.2,0-0.2c0,0,0,0,0,0c-0.5-0.1-0.8-0.1-1.2-0.3c-0.3-0.2-0.3-0.4-0.3-0.8V39l5.8-8.6
			c0.3-0.5,0.5-0.7,0.8-0.9c0,0,0.2-0.1,0.2-0.1c0.2-0.1,0.3-0.1,0.6-0.2c0,0,0,0,0,0c0.1,0,0.1-0.2,0-0.2l-7.8,0
			c-0.1,0-0.1,0.2,0,0.2c0,0,0,0,0,0c0.4,0,0.8,0,0.8,0.5c0,0.5-2.3,3.8-3.1,5c-0.1,0.2-0.2,0.4-0.2,0.6c0-0.2-0.2-0.4-0.3-0.6
			c-1.1-1.7-3-4.4-3.1-5c0-0.6,0.4-0.5,0.8-0.5c0,0,0,0,0,0c0.1,0,0.1-0.2,0-0.2l-8.2,0c0,0,0,0.2,0,0.2c0,0,0,0,0,0
			c0.3,0,0.5,0,1,0.2c0,0,0.2,0.1,0.2,0.1c0.3,0.2,0.4,0.4,0.7,0.9l5.8,8.6l0,5.4c0,0.5,0,0.6-0.3,0.8c-0.3,0.2-0.6,0.2-1.2,0.3
			c0,0,0,0,0,0c-0.1,0,0,0.2,0,0.2H39.3z"/>
	</g>
</g>
</svg>
