<?xml version="1.0" encoding="utf-8"?>
<!-- Generator: Adobe Illustrator 25.0.1, SVG Export Plug-In . SVG Version: 6.00 Build 0)  -->
<svg version="1.1" id="Crucial_Learning_Logo_Lock-up"
	 xmlns="http://www.w3.org/2000/svg" xmlns:xlink="http://www.w3.org/1999/xlink" x="0px" y="0px" viewBox="0 0 835.9 124.1"
	 style="enable-background:new 0 0 835.9 124.1;" xml:space="preserve">
<style type="text/css">
	.st0{fill:#000000;}
	.st1{fill:#ED1B2F;}
</style>
<path class="st0" d="M824.9,86.4c0-3,2.5-5.5,5.5-5.5c3,0,5.5,2.5,5.5,5.5c0,3-2.5,5.5-5.5,5.5c-3,0.1-5.4-2.3-5.5-5.2
	C824.9,86.6,824.9,86.5,824.9,86.4z M835.2,86.4c-0.1-2.6-2.3-4.7-4.9-4.6c-2.6,0.1-4.7,2.3-4.6,4.9c0.1,2.6,2.2,4.6,4.7,4.6
	c2.5,0.1,4.7-1.8,4.8-4.3C835.2,86.8,835.2,86.6,835.2,86.4z M829.8,88.3c0,0.3,0.2,0.4,0.9,0.4v0.5h-2.8v-0.5
	c0.7,0,0.9-0.1,0.9-0.4v-4c0-0.2-0.2-0.4-0.9-0.4v-0.5h2.7c1.7,0,2.3,0.7,2.3,1.4s-0.4,1.1-1.6,1.4v0.2c1.1,0.1,1.4,0.4,1.4,1
	l0.1,0.8c0,0.4,0.2,0.6,0.9,0.6v0.5H833c-1.2,0-1.4-0.4-1.4-1.1v-0.6c0-0.7-0.3-0.9-1.4-0.9h-0.4V88.3z M830.5,86.1
	c0.9,0,1.3-0.4,1.3-1.2s-0.4-1-1.3-1h-0.6v2.2H830.5z"/>
<path class="st0" d="M227.8,88.2c-10.4,0-21.3-8.5-21.3-25.5c0-18,9.3-27.6,19.7-27.6c4.4-0.1,8.5,1.7,11.5,4.9
	c-2.1,1-3.4,3.2-3.2,5.6c0,3.8,2.7,6.3,6.7,6.3c3.8,0,6.1-3.1,6.1-6.8c0-4-2.3-7.3-5.7-9.7l0,0l-0.2-0.1l-0.1-0.1
	c-4.3-2.6-9.1-4-14.1-4c-17.1,0-30.5,13.8-30.5,31.9c0,18.3,11.9,30.4,28.9,30.4c13.2,0,20.9-8.6,24.6-17.1l-3.3-1.6
	C243.1,82.3,238,88.2,227.8,88.2z"/>
<path class="st0" d="M279.9,50c-4.7,0-8.7,3.3-11.8,7.3v-7l-14.4,0.4V54c5.2,0.1,6.6,1.7,6.6,4.4v27c0,2.2-1.4,3.1-6.6,3.2V92h22.1
	v-3.4c-6-0.1-7.6-1-7.6-3.2V60.6c1.8-2.5,4.7-5.3,8.8-5.2c-0.1,0.5-0.2,1-0.2,1.5c0,3.2,2.4,4.8,5.1,4.8s4.8-2.3,4.8-5.2
	C286.7,53.2,284.5,50,279.9,50z"/>
<path class="st0" d="M331.2,85.4V50.2l-14.6,0.5V54c5,0.2,6.7,0.8,6.7,3.6v26.2c-2.7,1.6-5.3,3-9.4,3c-5.9,0-8.8-2.2-8.8-9.9V50.2
	l-14.6,0.5V54c5.2,0.2,6.7,0.8,6.7,3.6v22.5c0,8.1,4.4,12.6,10.9,12.6c6,0,10.9-2.7,15.4-6V92h14.4v-3.3
	C332.5,88.5,331.2,87.7,331.2,85.4z"/>
<path class="st0" d="M360.5,87.4c-8.8,0-13.8-7-13.8-17.8c0-11.5,5.1-16.5,11.9-16.5c2.7-0.1,5.4,0.9,7.5,2.7
	c-1.8,1-2.8,2.9-2.9,4.9c0,2.7,1.9,4.7,5,4.7c2.9,0,4.9-2.5,4.9-5.7c0-4.8-5.2-9.9-14.6-9.9c-11.3,0-20.1,9.3-20.1,21.9
	c0,12,7.4,21,19.2,21c8.4,0,13-4.1,16.8-9.6l-2.1-1.9C369.2,84.7,365.2,87.4,360.5,87.4z"/>
<path class="st0" d="M387.1,40.3c2.9,0.1,5.3-2.3,5.3-5.2c0-0.1,0-0.3,0-0.4c0.2-2.8-2-5.2-4.8-5.4c-0.2,0-0.4,0-0.6,0
	c-2.9-0.1-5.3,2.3-5.3,5.2c0,0.1,0,0.3,0,0.4c-0.2,2.8,2,5.2,4.8,5.4C386.7,40.3,386.9,40.3,387.1,40.3z"/>
<path class="st0" d="M391.2,85.4V50.3l-14.4,0.4V54c5.2,0.1,6.5,1.7,6.5,4.4v27c0,2.2-1.3,3.1-6.5,3.2V92h20.9v-3.4
	C392.4,88.5,391.2,87.6,391.2,85.4z"/>
<path class="st0" d="M433.3,83.1V63c0-8.7-5.5-12.9-14.9-12.9c-8.7,0-15.9,4.2-15.9,9.7c-0.1,2.6,1.9,4.8,4.5,5c0.1,0,0.2,0,0.3,0
	c2.6,0.1,4.7-1.9,4.8-4.5c0-0.2,0-0.3,0-0.5c0-1.5-0.4-2.9-1-4.2c1.6-1.5,3.8-2.3,6-2.2c5.9,0,8.2,2.8,8.2,11.4v2.6
	c-1.4,1.1-12.1,2.5-19,6.3c-3.4,1.9-5.5,5.5-5.4,9.4c0,5,3.5,9.5,11.1,9.5c5.3,0,9.8-3.1,13.4-7.1h0.5c0.5,5,1.6,7,6.4,7
	c2.8-0.1,5.5-0.6,8-1.7L440,88C434,88.7,433.3,87.5,433.3,83.1z M425.4,81.8c-2,2.8-5.4,5.5-9,5.5c-4.7,0-6.6-2.9-6.6-6.4
	c0-5.7,2.8-7.6,15.6-10.4L425.4,81.8z"/>
<path class="st0" d="M457.8,85.4V29l-14.9,0.4v3.3c5.2,0.1,7,1.7,7,4.4v48.3c0,2.2-1.4,3.1-6.6,3.2V92h21.1v-3.4
	C459,88.5,457.8,87.6,457.8,85.4z"/>
<path class="st0" d="M512.9,87.9h-9.4v-48c0-2.8,1.9-3.6,9.5-3.9v-3.5h-27.7V36c7.6,0.3,9.5,1.1,9.5,3.9v44.7c0,2.8-1.9,3.6-9.5,3.9
	V92h48.3l0.6-20.4l-3.2-0.2C527.6,83.6,524.8,87.9,512.9,87.9z"/>
<path class="st0" d="M560.5,87.6c-8.8,0-13.6-7.2-13.6-16.9v-0.5l27.7,0.1c0.7-10.1-4.4-20.5-16.7-20.5c-11.7,0-19.5,9.5-19.5,21.8
	c0,11.9,6.9,21,19.5,21c9.1,0,14-5.1,17.3-10.7l-2-1.9C569.7,84.5,565.6,87.6,560.5,87.6z M557.3,52.9c6.4,0,9.5,6.2,8.8,13.9
	L547,67.2C547.7,56.8,552,52.9,557.3,52.9z"/>
<path class="st0" d="M612.1,83.1V63c0-8.7-5.5-12.9-14.9-12.9c-8.7,0-15.9,4.2-15.9,9.7c-0.1,2.6,1.9,4.9,4.5,5c0.1,0,0.2,0,0.3,0
	c2.6,0.1,4.7-1.9,4.8-4.5c0-0.2,0-0.3,0-0.5c0-1.5-0.4-2.9-1-4.2c1.6-1.5,3.8-2.3,6-2.2c5.9,0,8.2,2.8,8.2,11.4v2.6
	c-1.4,1.1-12.1,2.5-19,6.3c-3.4,1.9-5.5,5.5-5.4,9.4c0,5,3.5,9.5,11.1,9.5c5.3,0,9.8-3.1,13.4-7.1h0.5c0.5,5,1.6,7,6.4,7
	c2.8-0.1,5.5-0.6,8-1.7l-0.3-2.6C612.8,88.7,612.1,87.5,612.1,83.1z M604.1,81.8c-2,2.8-5.4,5.5-9,5.5c-4.7,0-6.6-2.9-6.6-6.4
	c0-5.7,2.8-7.6,15.6-10.4L604.1,81.8z"/>
<path class="st0" d="M647.8,50c-4.7,0-8.7,3.3-11.8,7.3v-7l-14.4,0.4V54c5.2,0.1,6.6,1.7,6.6,4.4v27c0,2.2-1.4,3.1-6.6,3.2V92h22.1
	v-3.4c-6-0.1-7.6-1-7.6-3.2V60.6c1.8-2.5,4.7-5.3,8.8-5.2c-0.1,0.5-0.2,1-0.2,1.5c0,3.2,2.3,4.8,5,4.8c2.7-0.1,4.9-2.3,4.8-5.1
	c0-0.1,0-0.1,0-0.2C654.6,53.2,652.4,50,647.8,50z"/>
<path class="st0" d="M698,85.4V62.6c0-8.1-4.2-12.5-10.4-12.5c-6,0-11.4,3.2-16.2,6.5v-6.2l-14.4,0.4V54c5.2,0.1,6.6,1.7,6.6,4.4v27
	c0,2.2-1.4,3.1-6.6,3.2V92h20.2v-3.4c-4.5-0.1-5.7-1-5.7-3.2V59.5c2.9-2.2,6.4-3.5,10.1-3.6c5.3,0,8.3,2.2,8.3,9.9v19.6
	c0,2.2-1.2,3.1-5.8,3.2V92h20.3v-3.4C699.2,88.5,698,87.6,698,85.4z"/>
<path class="st0" d="M722.7,85.4V50.3l-14.4,0.4V54c5.2,0.1,6.5,1.7,6.5,4.4v27c0,2.2-1.3,3.1-6.5,3.2V92h20.9v-3.4
	C723.9,88.5,722.7,87.6,722.7,85.4z"/>
<path class="st0" d="M718.5,40.3c2.9,0.1,5.3-2.3,5.3-5.2c0-0.1,0-0.3,0-0.4c0.2-2.8-2-5.2-4.8-5.4c-0.2,0-0.4,0-0.6,0
	c-2.9-0.1-5.3,2.3-5.3,5.2c0,0.1,0,0.3,0,0.4c-0.2,2.8,2,5.2,4.8,5.4C718.2,40.3,718.4,40.3,718.5,40.3z"/>
<path class="st0" d="M773.8,85.4V62.6c0-8.1-4.2-12.5-10.4-12.5c-6,0-11.4,3.2-16.2,6.5v-6.2l-14.4,0.4V54c5.2,0.1,6.6,1.7,6.6,4.4
	v27c0,2.2-1.4,3.1-6.6,3.2V92h20.2v-3.4c-4.5-0.1-5.7-1-5.7-3.2V59.5c2.9-2.2,6.4-3.5,10.1-3.6c5.3,0,8.3,2.2,8.3,9.9v19.6
	c0,2.2-1.2,3.1-5.8,3.2V92h20.3v-3.4C775.1,88.5,773.8,87.6,773.8,85.4z"/>
<path class="st0" d="M815.3,48.3c-0.2,2.1,1.4,4,3.5,4.2c0.1,0,0.2,0,0.3,0c1.9,0,3.5-1.6,3.5-3.5c0-0.1,0-0.1,0-0.2
	c0-2.6-1.9-4.5-5-4.5c-4.3,0-7.7,3.3-9.6,7c-2.4-0.9-4.9-1.4-7.5-1.4c-9.3,0-16.2,5.4-16.2,14.1c-0.2,5.2,2.8,10,7.6,12.1
	c-4,2.1-6.5,4.7-6.5,7.4c0,3.8,1.9,6,7.4,7v0.6c-7,1-11.1,5-11.1,9.1c0,5.3,6.5,9.8,18,9.8c14.4,0,21.6-7.3,21.6-14.5
	c0-7.8-5.6-10.8-17.2-10.8h-4c-7.3,0-8.9-1.7-8.9-3.5c0-1.6,1.5-2.9,4-4.1c1.8,0.4,3.6,0.6,5.4,0.6c9.2,0,16.2-5.4,16.2-14.2
	c0.1-4.7-2.4-9-6.5-11.3C811.5,50.6,813.2,49.2,815.3,48.3z M803.6,92.3c9.2,0,11.4,2.4,11.4,6.1c0,5-5.3,8.7-13,8.7
	c-9.6,0-13.7-3.3-13.7-7.6c0-4,3.1-6.1,7.9-7.2H803.6z M800.9,75c-4.6,0-8.4-2.7-8.4-11s3.1-11,7.6-11c4.7,0,8.4,3.8,8.4,10.9
	C808.5,72,805.3,75,800.9,75z"/>
<path class="st1" d="M130.4,65.7c-10.7,0-18.2,3.3-30,21.7c-5.2,8.2-11.4,16.4-19.2,21.8c-26-13.7-36-46-22.3-72
	c5-9.5,12.8-17.3,22.3-22.3c7.8,5.4,14,13.7,19.2,21.8c9.2,14.4,16.4,21.7,30,21.7c13.6,0,24.7-11.1,24.7-24.7
	c0-13-13.3-33.7-49-33.7c-8.4,0-16.7,1.7-24.4,5c-6-3.3-12.8-5-19.6-5C27.8-0.4-0.3,27-0.8,61.3s27,62.4,61.3,62.8
	c0.5,0,1.1,0,1.6,0c6.9,0,13.6-1.7,19.6-5c7.7,3.3,16,5,24.4,5c35.7,0,49-20.7,49-33.7C155,76.8,144,65.7,130.4,65.7z M106.1,8.7
	c27.8,0,40.3,14.6,40.3,25c0,8.8-7.2,16-16,16c-9,0-13.6-3.6-22.6-17.7c-4.6-7.2-10.2-14.9-17.3-21C95.5,9.5,100.8,8.7,106.1,8.7z
	 M62.1,115.4C32.6,115.8,8.4,92.2,8,62.8C7.6,33.3,31.2,9.1,60.6,8.7c0.5,0,1,0,1.5,0c3.3,0,6.7,0.5,9.8,1.5
	C43.3,29.1,35.4,67.5,54.2,96.1c4.6,7.1,10.7,13.1,17.7,17.7C68.7,114.9,65.4,115.4,62.1,115.4z M106.1,115.4
	c-5.3,0-10.5-0.8-15.6-2.3c7.1-6,12.7-13.8,17.3-21c9-14,13.7-17.7,22.6-17.7c8.8,0,16,7.2,16,16
	C146.4,107.6,122.8,115.4,106.1,115.4z"/>
</svg>
