<svg width="36" height="36" viewBox="0 0 36 36" fill="none" xmlns="http://www.w3.org/2000/svg">
<path d="M0.450824 17.9987C0.331258 17.9987 0.216585 17.9512 0.132039 17.8667C0.0474928 17.7821 0 17.6675 0 17.5479V13.9502C0 13.8306 0.0474928 13.716 0.132039 13.6314C0.216585 13.5469 0.331258 13.4994 0.450824 13.4994H8.55933C8.61864 13.4992 8.6774 13.5107 8.73224 13.5333C8.78708 13.5559 8.83694 13.5891 8.87893 13.631C8.92093 13.6728 8.95425 13.7226 8.97699 13.7774C8.99972 13.8322 9.01143 13.8909 9.01143 13.9502V17.5479C9.01143 17.6072 8.99972 17.6659 8.97699 17.7207C8.95425 17.7755 8.92093 17.8253 8.87893 17.8671C8.83694 17.909 8.78708 17.9422 8.73224 17.9648C8.6774 17.9874 8.61864 17.9989 8.55933 17.9987H0.450824ZM0.450824 11.249H15.3014C15.4207 11.249 15.5352 11.2017 15.6197 11.1175C15.7042 11.0332 15.7519 10.9188 15.7522 10.7995V7.19924C15.7519 7.07989 15.7042 6.96555 15.6197 6.88128C15.5352 6.797 15.4207 6.74968 15.3014 6.74968H0.449553C0.330426 6.75002 0.216274 6.79749 0.132039 6.88172C0.0478035 6.96596 0.000335098 7.08011 0 7.19924V10.7995C0.000335098 10.9186 0.0478035 11.0328 0.132039 11.117C0.216274 11.2012 0.330426 11.2487 0.449553 11.249H0.450824ZM18 0H0.450824C0.331258 0 0.216585 0.0474987 0.132039 0.132045C0.0474928 0.216591 0 0.331259 0 0.450826V4.04854C0 4.16811 0.0474928 4.28277 0.132039 4.36732C0.216585 4.45187 0.331258 4.49937 0.450824 4.49937H17.9987C20.5491 4.4993 23.0472 5.22167 25.2039 6.58283C27.3606 7.94398 29.0877 9.88823 30.185 12.1904C31.2823 14.4926 31.705 17.0585 31.4042 19.591C31.1034 22.1236 30.0913 24.5191 28.4852 26.5001C26.8791 28.4812 24.7447 29.9668 22.3291 30.7848C19.9136 31.6028 17.3157 31.7199 14.8363 31.1224C12.357 30.5249 10.0976 29.2372 8.3199 27.4086C6.54216 25.58 5.31879 23.2852 4.79145 20.79C4.75989 20.6372 4.67658 20.4999 4.55559 20.4014C4.4346 20.3028 4.28332 20.249 4.12727 20.249H0.659094C0.594269 20.2493 0.530254 20.2634 0.47138 20.2905C0.412505 20.3177 0.360155 20.3572 0.317878 20.4063C0.275601 20.4554 0.24438 20.5131 0.226346 20.5754C0.208311 20.6376 0.203878 20.703 0.213347 20.7672C0.742465 24.1681 2.23554 27.346 4.51559 29.9242C6.79565 32.5025 9.76711 34.373 13.0778 35.3141C16.3884 36.2552 19.8995 36.2273 23.1948 35.2339C26.4901 34.2405 29.4316 32.3231 31.6705 29.709C33.9094 27.0949 35.3519 23.8938 35.827 20.4849C36.3022 17.076 35.79 13.6024 34.3513 10.4757C32.9126 7.34905 30.6076 4.7004 27.7095 2.8437C24.8114 0.987011 21.4418 0.000119638 18 0Z" fill="#ff0037"/>
<path d="M32.5169 2.8289V4.5522C32.5169 4.55624 32.5185 4.56012 32.5214 4.56297C32.5242 4.56583 32.5281 4.56744 32.5322 4.56744H32.8408C32.8427 4.56745 32.8446 4.56705 32.8464 4.56627C32.8482 4.56549 32.8498 4.56434 32.8511 4.56291C32.8524 4.56147 32.8534 4.55978 32.854 4.55794C32.8547 4.55609 32.8549 4.55414 32.8547 4.5522V2.8289H33.5138C33.5157 2.82908 33.5177 2.82885 33.5195 2.82823C33.5214 2.82761 33.5231 2.82661 33.5245 2.82529C33.526 2.82397 33.5271 2.82237 33.5279 2.82059C33.5287 2.81881 33.5291 2.81688 33.529 2.81493V2.54063C33.529 2.53659 33.5274 2.53271 33.5246 2.52985C33.5217 2.527 33.5178 2.52539 33.5138 2.52539H31.8629C31.8589 2.52539 31.855 2.527 31.8521 2.52985C31.8493 2.53271 31.8477 2.53659 31.8477 2.54063V2.81493C31.8476 2.81688 31.8481 2.81881 31.8488 2.82059C31.8496 2.82237 31.8507 2.82397 31.8522 2.82529C31.8536 2.82661 31.8553 2.82761 31.8572 2.82823C31.859 2.82885 31.861 2.82908 31.8629 2.8289H32.5169Z" fill="#ff0037"/>
<path d="M34.1494 4.55963C34.1513 4.55947 34.153 4.55895 34.1547 4.55809C34.1563 4.55724 34.1578 4.55607 34.159 4.55466C34.1601 4.55324 34.161 4.5516 34.1616 4.54984C34.1621 4.54808 34.1623 4.54623 34.1621 4.54439V3.06619L34.8707 3.97546C34.8729 3.97844 34.8758 3.98082 34.8791 3.98238C34.8825 3.98394 34.8861 3.98461 34.8898 3.98435H34.9355C34.939 3.98452 34.9424 3.98379 34.9456 3.98223C34.9487 3.98067 34.9513 3.97834 34.9533 3.97546L35.6556 3.07254V4.54439C35.6555 4.54822 35.657 4.55192 35.6596 4.55474C35.6622 4.55756 35.6657 4.55931 35.6695 4.55963H35.9819C35.9839 4.55964 35.9858 4.55924 35.9876 4.55846C35.9894 4.55768 35.991 4.55653 35.9923 4.5551C35.9936 4.55366 35.9946 4.55197 35.9952 4.55013C35.9958 4.54828 35.9961 4.54633 35.9959 4.54439V2.53282C35.9961 2.53088 35.9958 2.52893 35.9952 2.52708C35.9946 2.52524 35.9936 2.52355 35.9923 2.52211C35.991 2.52068 35.9894 2.51953 35.9876 2.51875C35.9858 2.51797 35.9839 2.51757 35.9819 2.51758H35.6911C35.6877 2.51753 35.6842 2.51831 35.6812 2.51986C35.6781 2.5214 35.6754 2.52367 35.6733 2.52647L34.9114 3.52337L34.1494 2.52647C34.1473 2.52381 34.1445 2.52164 34.1415 2.52011C34.1384 2.51858 34.1351 2.51771 34.1316 2.51758H33.8434C33.8393 2.51758 33.8354 2.51919 33.8326 2.52205C33.8297 2.5249 33.8281 2.52878 33.8281 2.53282V4.54439C33.8281 4.54843 33.8297 4.55231 33.8326 4.55517C33.8354 4.55802 33.8393 4.55963 33.8434 4.55963H34.1494Z" fill="#ff0037"/>
</svg>
