<?xml version="1.0" encoding="utf-8"?>
<!-- Generator: Adobe Illustrator 27.0.1, SVG Export Plug-In . SVG Version: 6.00 Build 0)  -->
<svg version="1.1" id="Layer_1" xmlns="http://www.w3.org/2000/svg" xmlns:xlink="http://www.w3.org/1999/xlink" x="0px" y="0px"
	 viewBox="0 0 150 33" style="enable-background:new 0 0 150 33;" xml:space="preserve">
<style type="text/css">
	.st0{fill:#252525;}
	.st1{enable-background:new    ;}
</style>
<g>
	<g>
		<g id="Group_404" transform="translate(0 0)">
			<path id="Path_2092" class="st0" d="M142.5,30V1.4h-2.2v23.3L121.7,1l-0.5,0.1v28.6h2.1V6.1l18.8,24L142.5,30z M113,1.4h-2.2
				v28.3h2.2V1.4z M105.1,29.7L90.7,15.1l13.9-13.7h-2.8L88.6,14.5V1.4h-2.2v28.3h2.2v-14l13.7,14H105.1z M79.7,22.4
				c0-4-2.6-5.9-7.4-8.1c-3.4-1.6-5.8-3-5.8-6.1c0-2.9,2.4-5.2,6.1-5.2c2,0,3.9,0.6,5.5,1.8l1-1.8c-1.9-1.3-4.1-1.9-6.4-1.9
				c-5,0-8.5,3.3-8.5,7.4c0,3.9,2.7,5.9,7,7.8c4,1.8,6.2,3.2,6.2,6.5c0,3.1-2.5,5.5-6.2,5.5c-2.6-0.1-5.2-1-7.3-2.5l-1,1.9
				c2.4,1.7,5.2,2.6,8.2,2.6C75.8,30.1,79.7,27,79.7,22.4 M50.3,19.4v-18h-2.2v18c0,5.7-3.4,8.7-8.4,8.7s-8.3-2.9-8.3-8.7v-18h-2.2
				v18c0,6.8,3.9,10.6,10.5,10.6C46.1,30,50.3,26,50.3,19.4 M21.6,30V1.4h-2.2v23.3L0.7,1L0.2,1.1v28.6h2.1V6.1l18.8,24L21.6,30z"/>
		</g>
	</g>
	<g class="st1">
		<path class="st0" d="M144.9,30c0-1.2,1-2.3,2.2-2.3s2.2,1,2.2,2.3c0,1.2-1,2.2-2.2,2.2S144.9,31.3,144.9,30z M149,30
			c0-1-0.8-1.9-1.8-1.9c-1,0-1.8,0.9-1.8,1.9c0,1,0.8,1.9,1.8,1.9C148.2,31.9,149,31.1,149,30z M146.4,28.9c0.2,0,0.4,0,0.6,0
			c0.6,0,0.9,0.3,0.9,0.7c0,0.3-0.1,0.5-0.4,0.7l0.6,0.9h-0.5l-0.5-0.8c-0.1,0-0.1,0-0.1,0c0,0-0.1,0-0.2,0v0.8h-0.4V28.9z
			 M146.9,30c0.1,0,0.1,0,0.2,0c0.3,0,0.5-0.1,0.5-0.4c0-0.2-0.2-0.4-0.4-0.4c-0.1,0-0.2,0-0.2,0V30z"/>
	</g>
</g>
</svg>
