<?xml version="1.0" encoding="utf-8"?>
<!DOCTYPE svg PUBLIC "-//W3C//DTD SVG 1.0//EN" "http://www.w3.org/TR/2001/REC-SVG-20010904/DTD/svg10.dtd">
<svg
  version="1.0"
  xmlns="http://www.w3.org/2000/svg"
  width="1312"
  height="1164"
  viewBox="0 0 13120 11640"
>
<g
  fill="#E2E8EB" stroke="#E2E8EB" stroke-width="1" fill-rule="evenodd"
>
  <g>
    <path d="M5800 11314 c-8 -2 -296 -35 -640 -74 -344 -38 -701 -79 -795 -90 -93 -11 -687 -79 -1320 -150 -632 -72 -1348 -153 -1590 -180 -242 -28 -533 -61 -646 -74 -114 -13 -211 -26 -217 -30 -5 -3 -13 -18 -16 -33 -4 -16 -25 -86 -48 -158 l-40 -130 -111 -112 c-61 -62 -108 -115 -105 -118 6 -6 54 -2 273 24 99 12 1160 140 1545 186 157 19 362 44 455 55 94 11 638 76 1210 145 572 69 1099 132 1170 141 72 8 180 21 240 29 126 17 183 19 170 6 -32 -29 -538 -205 -838 -291 -408 -117 -1276 -300 -1847 -389 -282 -45 -682 -102 -850 -122 -96 -11 -233 -28 -305 -37 l-130 -17 -16 -35 c-9 -19 -67 -170 -129 -335 -63 -165 -139 -367 -170 -450 -32 -82 -54 -154 -50 -159 5 -4 48 -3 97 3 48 6 133 15 188 21 55 6 129 15 165 20 36 5 135 19 220 30 546 72 1226 224 1695 379 612 201 1045 392 1528 674 103 60 190 107 193 104 12 -12 -269 -249 -501 -422 -391 -292 -975 -609 -1500 -815 -361 -143 -791 -275 -1083 -335 -37 -8 -37 -9 -52 -145 -5 -52 -19 -171 -30 -265 -10 -93 -29 -253 -40 -355 -11 -102 -23 -197 -26 -212 -3 -17 -1 -28 5 -28 21 0 325 141 626 291 290 143 762 406 970 539 448 286 832 565 1120 814 168 146 425 389 540 510 69 72 125 124 125 116 0 -18 -156 -268 -267 -428 -211 -302 -541 -671 -848 -947 -413 -371 -780 -646 -1173 -875 -61 -36 -113 -71 -116 -77 -3 -7 28 -212 69 -455 41 -244 75 -446 75 -450 0 -19 29 -2 133 79 339 264 593 489 878 779 279 284 356 369 540 599 368 457 646 890 902 1402 81 160 117 223 117 200 0 -20 -100 -382 -136 -492 -107 -327 -300 -755 -484 -1074 -229 -397 -551 -835 -857 -1164 -46 -49 -83 -93 -83 -97 0 -7 431 -624 450 -644 11 -11 96 104 265 359 502 755 881 1608 1049 2359 19 88 39 163 45 169 11 11 77 -187 130 -393 106 -411 147 -767 138 -1202 -5 -283 -17 -376 -73 -550 -114 -353 -363 -672 -731 -936 -260 -186 -630 -356 -948 -436 -87 -22 -388 -74 -474 -82 -92 -8 -77 -18 49 -32 254 -29 462 -22 690 24 122 24 312 83 419 130 30 14 56 23 58 20 6 -5 -94 -94 -246 -220 -518 -427 -756 -697 -931 -1051 -186 -376 -285 -870 -265 -1325 10 -251 18 -254 64 -24 88 440 173 730 281 949 96 197 217 359 402 541 189 186 276 253 799 617 168 117 333 234 367 260 33 26 65 47 71 47 8 0 9 -27 4 -87 -15 -163 -8 -577 11 -708 33 -232 97 -476 176 -674 44 -112 159 -345 185 -376 19 -24 21 -35 -24 145 -113 443 -151 877 -110 1245 24 215 97 503 185 733 71 185 99 240 190 377 126 190 243 438 319 673 15 46 31 82 36 80 5 -2 27 -53 48 -113 106 -306 238 -556 410 -779 179 -233 290 -483 357 -801 32 -152 43 -435 24 -616 -7 -66 -10 -122 -7 -125 8 -8 73 166 100 266 45 174 52 234 51 450 -1 113 -6 226 -11 253 -6 28 -7 50 -1 53 5 3 68 -39 141 -94 73 -54 184 -134 247 -177 504 -343 665 -468 866 -669 282 -283 407 -497 528 -896 45 -152 90 -335 135 -555 20 -99 41 -179 46 -178 23 6 32 320 15 513 -51 566 -229 1041 -532 1419 -38 47 -64 87 -59 89 6 2 34 -3 63 -12 137 -39 539 -87 731 -86 l72 1 -100 33 c-122 40 -616 238 -769 308 -264 120 -554 288 -806 466 -184 130 -248 182 -379 308 -392 376 -580 762 -663 1364 -17 126 -17 599 1 745 15 133 47 334 67 430 55 264 166 643 193 660 5 2 21 -53 36 -123 184 -841 598 -1748 1183 -2587 66 -93 125 -171 133 -172 8 -2 56 57 114 139 55 78 155 220 223 315 67 95 122 175 122 179 0 4 -39 49 -87 102 -526 569 -966 1258 -1235 1932 -124 310 -247 741 -228 795 7 19 8 18 15 -4 27 -86 220 -457 355 -681 363 -606 740 -1082 1267 -1600 291 -287 479 -452 767 -673 126 -98 156 -117 156 -101 0 3 34 206 75 452 l76 447 -23 18 c-13 10 -81 53 -153 96 -791 470 -1580 1200 -2045 1891 -96 142 -190 301 -190 321 0 10 85 -68 213 -195 373 -372 633 -590 1127 -943 280 -199 773 -498 1170 -708 321 -170 858 -422 870 -408 4 4 -9 157 -30 338 -21 182 -46 400 -56 485 -9 85 -20 158 -23 162 -3 3 -58 18 -121 32 -754 169 -1663 561 -2310 997 -252 170 -680 509 -680 540 0 13 12 11 35 -5 117 -80 527 -297 815 -430 479 -222 1143 -434 1770 -566 107 -22 236 -50 285 -60 152 -33 648 -105 890 -130 61 -6 148 -16 194 -21 46 -6 87 -6 92 -2 4 4 -42 139 -103 298 -60 160 -141 373 -179 474 -38 102 -74 190 -79 197 -10 12 -80 22 -330 50 -243 26 -834 111 -1120 159 -567 97 -1265 245 -1640 350 -287 79 -699 219 -845 287 -43 20 -47 23 -25 26 20 2 731 -80 1105 -128 71 -9 625 -76 1545 -185 423 -51 511 -62 740 -89 113 -14 340 -41 505 -61 545 -65 718 -85 880 -105 259 -31 275 -33 275 -23 0 4 -47 56 -105 113 l-106 105 -50 160 c-28 88 -55 164 -59 168 -7 8 -118 22 -870 107 -245 28 -521 59 -615 70 -181 21 -531 60 -970 110 -148 17 -348 39 -442 50 -372 43 -543 62 -1228 140 -390 44 -804 91 -920 104 -147 17 -214 21 -222 14 -7 -6 -67 -119 -132 -252 -213 -430 -351 -775 -461 -1151 -40 -137 -100 -413 -100 -460 0 -25 -18 -80 -24 -74 -2 2 -13 67 -25 144 -50 331 -225 852 -443 1319 -61 131 -226 456 -240 474 -10 12 -27 14 -58 6z"/>
    <path d="M2585 6056 c-112 -28 -175 -51 -274 -100 -67 -34 -220 -134 -276 -181 l-30 -25 65 6 c41 4 99 0 159 -11 160 -28 269 -77 431 -193 57 -41 142 -93 188 -115 109 -52 206 -61 323 -29 74 20 229 86 229 96 0 11 -123 88 -241 150 -163 85 -333 151 -498 192 -73 18 -136 36 -139 39 -10 10 132 4 248 -9 200 -24 373 -74 563 -163 65 -30 121 -53 124 -50 7 8 -61 131 -106 190 -41 55 -128 130 -182 158 -83 42 -179 61 -334 65 -133 3 -161 1 -250 -20z"/>
    <path d="M10310 5850 c-158 -34 -276 -87 -389 -174 -126 -97 -188 -195 -216 -340 -17 -87 -20 -182 -6 -191 5 -3 19 7 31 22 124 158 284 312 423 405 84 58 250 142 267 136 6 -2 -24 -31 -67 -65 -128 -101 -285 -261 -376 -384 -82 -111 -157 -226 -157 -241 0 -14 190 -8 268 8 42 9 100 28 127 42 71 38 153 125 204 218 108 196 139 242 216 320 93 95 186 158 267 182 32 9 58 20 58 24 0 8 -124 36 -214 48 -121 16 -341 11 -436 -10z"/>
    <path d="M1955 5066 c-22 -7 -62 -24 -90 -38 -172 -88 -337 -123 -467 -101 -35 6 -65 9 -67 7 -10 -9 98 -120 171 -174 138 -104 254 -151 424 -171 117 -14 207 0 281 42 54 31 126 97 163 149 24 33 17 37 -40 20 -160 -48 -385 -66 -538 -45 -58 8 -107 15 -109 15 -2 0 -2 4 1 8 3 5 56 12 117 16 107 6 240 30 359 63 82 23 210 73 210 83 0 13 -120 86 -187 114 -70 29 -159 34 -228 12z"/>
    <path d="M3257 4846 c-32 -13 -63 -28 -70 -33 -6 -5 -55 -43 -107 -85 -52 -41 -114 -87 -137 -102 -61 -37 -186 -77 -268 -85 l-70 -6 65 -41 c93 -59 212 -111 304 -135 94 -24 258 -28 351 -9 75 15 169 58 214 96 58 49 146 202 127 221 -3 3 -45 -15 -93 -40 -180 -93 -391 -157 -513 -156 l-55 0 105 38 c127 46 227 93 339 160 87 53 171 117 171 130 0 20 -188 71 -259 71 -25 0 -72 -11 -104 -24z"/>
    <path d="M6877 4805 c-87 -24 -194 -94 -277 -182 -64 -67 -89 -103 -134 -195 -51 -105 -107 -280 -93 -295 3 -3 25 11 49 31 93 80 239 129 418 141 179 12 266 45 333 128 38 46 91 138 102 176 l7 24 -63 -7 c-160 -16 -363 -74 -518 -147 -46 -21 -86 -39 -89 -39 -13 0 48 55 98 90 106 72 260 139 443 191 42 12 77 25 77 29 0 11 -106 48 -169 60 -69 13 -124 11 -184 -5z"/>
    <path d="M10593 4735 c-29 -8 -74 -26 -100 -39 -58 -29 -173 -113 -173 -125 0 -4 75 -11 168 -14 166 -5 263 -19 417 -58 103 -26 249 -82 300 -115 46 -29 47 -29 -90 0 -131 28 -306 46 -450 46 -153 0 -344 -16 -359 -31 -9 -8 30 -61 100 -134 156 -163 262 -188 579 -140 165 25 189 26 290 16 139 -13 213 -33 294 -77 35 -19 66 -32 69 -29 10 9 -55 133 -126 240 -78 118 -207 251 -311 320 -191 126 -444 184 -608 140z"/>
    <path d="M4755 4548 c-104 -105 -120 -140 -119 -258 0 -64 7 -119 22 -170 42 -152 38 -306 -12 -416 -15 -32 -24 -60 -20 -63 16 -17 217 121 304 209 129 130 201 287 203 445 1 68 -3 89 -26 140 -32 67 -105 167 -120 162 -5 -1 -9 -48 -8 -112 3 -163 -20 -303 -71 -442 -34 -93 -55 -110 -43 -35 15 98 21 271 14 377 -8 127 -27 235 -41 235 -6 0 -43 -33 -83 -72z"/>
    <path d="M1655 4137 c-97 -26 -174 -80 -261 -186 -106 -128 -163 -293 -167 -483 -1 -60 2 -102 8 -104 6 -2 22 13 37 32 37 50 136 127 202 158 30 14 96 38 148 52 194 55 272 107 325 217 32 65 62 181 50 193 -23 24 -349 -134 -498 -240 -51 -36 -94 -64 -97 -61 -9 9 52 86 117 147 73 68 218 166 331 223 64 32 71 39 55 48 -29 16 -193 18 -250 4z"/>
    <path d="M7640 4116 c0 -2 11 -28 24 -57 41 -95 95 -262 117 -364 24 -115 39 -410 21 -441 -12 -21 -17 -4 -53 160 -41 189 -124 406 -220 578 -49 85 -52 89 -69 73 -32 -29 -100 -170 -121 -252 -36 -137 -14 -224 102 -409 96 -153 128 -215 160 -309 21 -61 24 -88 24 -212 0 -79 3 -143 7 -143 11 0 157 173 201 239 59 87 124 222 154 318 24 79 26 104 27 243 1 167 -10 222 -62 325 -32 64 -140 169 -222 218 -57 33 -90 45 -90 33z"/>
    <path d="M9970 3896 c-47 -13 -97 -28 -112 -34 -31 -13 -46 -32 -24 -32 38 0 291 -92 393 -144 127 -63 196 -106 300 -183 61 -46 115 -103 99 -103 -3 0 -74 33 -158 74 -84 41 -200 91 -258 111 -118 41 -381 105 -430 105 -30 0 -32 -2 -26 -27 4 -16 28 -70 53 -121 61 -124 131 -200 227 -246 71 -35 93 -39 361 -76 191 -26 333 -87 453 -194 l67 -60 3 33 c4 40 -32 202 -66 296 -99 278 -283 481 -534 588 -101 43 -225 48 -348 13z"/>
    <path d="M5440 3854 c-144 -39 -232 -108 -294 -234 -52 -108 -68 -177 -67 -305 0 -83 6 -133 24 -205 25 -97 74 -212 92 -214 5 -1 13 16 17 36 23 110 112 233 260 358 177 149 212 222 189 388 -14 95 -19 112 -34 112 -19 0 -200 -190 -267 -280 -34 -47 -83 -121 -109 -164 -53 -92 -64 -82 -30 26 43 135 149 318 248 429 28 31 47 59 44 63 -8 8 -7 8 -73 -10z"/>
    <path d="M2870 3785 c-266 -50 -487 -201 -659 -450 -56 -80 -144 -245 -136 -253 2 -3 37 12 77 32 148 74 346 93 577 55 90 -15 157 -20 236 -18 101 4 116 7 175 36 36 18 92 57 126 87 74 66 151 164 138 175 -13 12 -232 31 -357 31 -132 0 -283 -15 -412 -42 -55 -11 -113 -22 -130 -25 l-30 -5 33 25 c18 13 70 38 115 55 205 76 383 111 605 119 89 3 162 9 162 13 0 13 -134 99 -200 129 -111 49 -198 60 -320 36z"/>
    <path d="M11263 3664 c-41 -18 266 -336 408 -422 19 -12 44 -31 54 -42 19 -21 19 -21 -10 -14 -45 11 -201 90 -278 142 -38 25 -111 86 -162 134 -51 48 -96 88 -99 88 -24 0 11 -158 51 -232 55 -100 200 -194 363 -234 123 -30 372 -14 514 33 l49 16 -59 21 c-131 48 -236 140 -352 308 -116 168 -171 200 -352 205 -63 1 -121 0 -127 -3z"/>
    <path d="M6191 3594 c0 -5 52 -47 116 -94 140 -104 309 -276 393 -401 64 -96 114 -188 107 -195 -2 -3 -67 58 -143 135 -76 76 -188 175 -248 219 -113 83 -301 200 -338 210 -21 5 -21 4 -14 -90 7 -103 34 -226 62 -280 9 -18 43 -58 74 -89 46 -45 94 -74 249 -154 143 -73 208 -112 255 -154 85 -77 153 -163 189 -241 30 -65 30 -65 39 -35 29 103 40 223 35 374 -5 166 -18 231 -68 354 -44 108 -88 174 -179 268 -88 90 -150 130 -245 156 -59 16 -285 30 -284 17z"/>
    <path d="M8812 3361 c-160 -67 -239 -138 -303 -275 -53 -113 -70 -182 -76 -312 -7 -130 11 -248 59 -383 48 -137 161 -341 189 -341 5 0 9 27 9 59 0 101 59 255 139 366 20 28 87 104 149 169 88 93 121 137 153 200 l41 81 -5 105 c-3 81 -10 125 -33 195 -19 57 -35 90 -44 90 -20 0 -129 -131 -218 -265 -89 -131 -165 -276 -213 -402 -18 -49 -36 -88 -41 -88 -15 0 -8 84 17 192 45 199 154 433 291 626 15 21 15 22 -2 22 -11 0 -61 -18 -112 -39z"/>
    <path d="M4345 3091 c91 -216 127 -378 133 -604 4 -186 -6 -244 -26 -150 -45 207 -59 262 -94 363 -46 132 -118 290 -172 374 -43 68 -48 67 -103 -31 -63 -114 -85 -195 -81 -298 5 -108 22 -150 129 -316 77 -120 137 -247 160 -339 8 -31 13 -105 13 -172 0 -109 1 -116 18 -107 29 16 169 193 225 285 102 167 144 316 144 505 0 252 -72 391 -266 519 -112 72 -121 69 -80 -29z"/>
    <path d="M5854 2878 c53 -187 60 -233 61 -403 0 -165 -6 -225 -24 -225 -4 0 -11 37 -15 83 -8 94 -28 201 -58 302 -28 99 -91 245 -105 245 -32 0 -115 -143 -134 -229 -16 -75 2 -148 71 -286 32 -66 67 -147 76 -180 18 -65 24 -194 11 -263 l-8 -44 28 20 c51 36 154 145 195 204 99 146 145 301 135 455 -8 130 -59 221 -173 308 -53 41 -69 44 -60 13z"/>
    <path d="M2974 2851 c-144 -41 -234 -107 -323 -235 -144 -208 -190 -444 -143 -723 23 -131 61 -257 77 -253 6 2 20 30 32 63 53 148 183 284 399 419 229 143 291 221 315 391 12 87 5 232 -12 242 -5 4 -30 -8 -56 -26 -201 -136 -392 -316 -521 -491 -40 -53 -77 -100 -84 -104 -38 -23 58 184 147 316 75 112 207 263 298 340 36 30 68 61 71 68 8 19 -126 14 -200 -7z"/>
    <path d="M9713 2629 c3 -13 9 -42 12 -64 22 -131 90 -318 166 -457 21 -37 34 -70 29 -73 -14 -9 -124 120 -174 204 -49 84 -116 237 -136 311 -6 23 -16 40 -23 37 -19 -6 -49 -108 -54 -187 -4 -62 -1 -86 17 -134 34 -89 117 -203 190 -263 117 -94 298 -171 458 -192 60 -9 67 2 26 40 -73 67 -133 197 -154 334 -27 182 -34 213 -52 258 -12 28 -41 65 -68 90 -52 47 -156 103 -209 114 -32 6 -34 5 -28 -18z"/>
    <path d="M10560 2536 c0 -24 114 -186 190 -269 39 -43 107 -111 151 -150 44 -40 75 -73 69 -75 -6 -2 -39 10 -73 26 -111 55 -243 165 -356 297 -40 47 -77 82 -82 79 -23 -14 3 -179 40 -252 18 -36 86 -108 141 -150 14 -11 58 -36 98 -56 131 -66 263 -88 447 -75 120 8 195 23 195 38 0 5 -19 16 -42 25 -109 41 -222 158 -313 321 -110 198 -196 255 -377 255 -70 0 -88 -3 -88 -14z"/>
    <path d="M7605 2421 c-21 -35 83 -363 161 -509 31 -57 53 -107 49 -110 -8 -8 -100 92 -145 158 -54 80 -113 201 -151 312 -37 110 -45 112 -75 20 -13 -39 -19 -86 -19 -147 0 -85 2 -94 38 -162 44 -81 124 -175 195 -226 112 -83 293 -153 447 -174 l49 -6 -47 54 c-91 104 -137 220 -157 402 -24 212 -90 302 -274 373 -69 28 -63 27 -71 15z"/>
    <path d="M3603 2048 c-132 -142 -155 -273 -79 -453 71 -167 79 -200 80 -325 1 -78 -3 -126 -13 -148 -7 -18 -11 -35 -8 -39 18 -17 201 152 273 252 82 114 126 250 127 396 0 87 -3 103 -31 162 -29 63 -137 187 -163 187 -13 0 -11 -19 15 -180 9 -52 16 -129 16 -170 0 -89 -22 -233 -41 -275 -14 -30 -14 -29 -16 30 -5 119 -25 272 -49 367 -26 106 -59 207 -72 220 -4 4 -22 -7 -39 -24z"/>
    <path d="M6510 2025 c0 -4 58 -68 130 -142 179 -185 304 -378 369 -565 18 -52 18 -56 3 -47 -9 6 -42 48 -73 93 -131 188 -283 345 -473 490 -63 48 -92 64 -99 57 -6 -6 -13 -65 -15 -134 -7 -200 27 -289 153 -405 34 -31 98 -78 141 -104 204 -121 345 -284 399 -461 l21 -71 32 90 c56 156 74 260 74 429 -1 176 -18 260 -82 394 -119 247 -242 335 -532 376 -27 4 -48 4 -48 0z"/>
    <path d="M8981 1959 c-107 -55 -206 -150 -249 -239 -18 -36 -41 -108 -52 -160 -43 -208 -14 -407 91 -614 64 -126 176 -286 217 -310 13 -7 14 -2 9 39 -11 103 32 286 92 390 16 28 70 106 120 175 123 168 155 233 160 329 2 41 -2 100 -9 130 -14 66 -94 241 -110 241 -16 0 -125 -171 -185 -290 -60 -121 -125 -289 -155 -405 -31 -116 -29 -113 -42 -91 -15 27 -3 209 21 321 28 130 75 263 141 403 39 80 54 122 45 122 -7 0 -50 -19 -94 -41z"/>
    <path d="M4980 1737 c0 -3 29 -65 64 -138 75 -156 118 -282 145 -423 24 -128 35 -264 24 -295 -8 -20 -14 -5 -42 90 -39 137 -107 310 -163 416 -59 112 -179 293 -195 293 -14 0 -64 -103 -95 -198 -16 -49 -19 -82 -16 -155 3 -84 7 -100 40 -168 21 -41 76 -123 124 -183 145 -186 214 -353 214 -523 0 -45 3 -83 8 -83 14 1 138 171 188 260 57 100 107 239 123 340 34 207 -12 448 -109 570 -38 48 -137 123 -210 160 -58 29 -100 44 -100 37z"/>
    <path d="M6000 1291 c0 -18 62 -187 95 -259 38 -82 117 -214 171 -284 43 -58 32 -61 -33 -10 -98 78 -215 235 -290 387 -24 49 -48 94 -52 98 -17 17 -36 -75 -36 -173 0 -128 26 -182 144 -301 72 -72 102 -94 181 -133 52 -25 129 -55 172 -65 79 -20 285 -44 300 -35 5 3 -8 18 -29 33 -104 76 -170 190 -222 384 -37 141 -66 201 -120 250 -49 44 -95 68 -185 96 -75 23 -96 26 -96 12z"/>
    <path d="M7825 1164 c-82 -49 -149 -117 -176 -178 -20 -44 -24 -76 -30 -236 -8 -194 -18 -250 -65 -342 -13 -26 -38 -63 -55 -83 l-31 -35 24 0 c32 0 149 40 218 75 191 96 322 227 389 390 30 71 39 185 21 242 -22 65 -73 164 -80 156 -4 -4 -17 -57 -29 -118 -28 -142 -91 -297 -164 -409 -32 -48 -60 -86 -63 -83 -3 3 13 58 35 123 52 154 81 293 88 427 7 125 7 125 -82 71z"/>
    </g>
  </g>
</svg>